<?xml version="1.0" encoding="UTF-8" standalone="no"?>
<!DOCTYPE svg PUBLIC "-//W3C//DTD SVG 1.1//EN" "http://www.w3.org/Graphics/SVG/1.1/DTD/svg11.dtd">
<svg version="1.1" xmlns="http://www.w3.org/2000/svg" xmlns:xlink="http://www.w3.org/1999/xlink" preserveAspectRatio="xMidYMid meet" viewBox="0 0 640 640" width="640" height="640"><defs><path d="M320 0C143.27 0 0 143.27 0 320C0 496.73 143.27 640 320 640C496.73 640 640 496.73 640 320C640 143.27 496.73 0 320 0Z" id="b5W1XpAbV"></path><path d="M227.33 404.82L319.82 398.76L319.82 274.6L227.33 280.66L227.33 404.82Z" id="d13P1WAZXh"></path><path d="M319.82 274.6L319.82 398.76L412.34 392.7L412.34 268.55L319.82 274.6Z" id="a1LkxJl3Uc"></path><path d="M347.38 350.67L292.62 350.67C292.62 368.89 292.62 379.01 292.62 381.03C292.62 383.45 290.66 385.42 288.24 385.42C285.72 385.42 273.14 385.42 250.5 385.42L250.5 490.19L389.49 490.19L389.49 385.42C366.85 385.42 354.28 385.42 351.76 385.42C349.34 385.42 347.38 383.46 347.38 381.03C347.38 376.98 347.38 366.86 347.38 350.67Z" id="bmzPCUeOL"></path><path d="M351.76 385.42C349.34 385.42 347.37 383.46 347.37 381.03C347.37 379.01 347.37 368.89 347.37 350.67L319.82 350.67L319.82 490.19L389.49 490.19L389.49 385.42C366.86 385.42 354.28 385.42 351.76 385.42Z" id="b1U5ocFo1m"></path><path d="M231.33 265.19C219.24 265.19 209.45 274.99 209.45 287.07C209.45 299.16 219.24 308.95 231.33 308.95C243.41 308.95 253.21 299.16 253.21 287.07C253.21 274.99 243.41 265.19 231.33 265.19Z" id="a4xc7WJ0DI"></path><path d="M408.67 265.17C396.59 265.17 386.79 274.97 386.79 287.05C386.79 299.13 396.59 308.93 408.67 308.93C420.76 308.93 430.55 299.13 430.55 287.05C430.55 274.97 420.76 265.17 408.67 265.17Z" id="aCq3SJqer"></path><path d="M317.54 378.18C271.93 378.18 234.95 341.21 234.95 295.6C234.95 288.06 234.95 227.75 234.95 220.21C234.95 174.6 271.93 137.62 317.53 137.62C318.03 137.62 321.97 137.62 322.46 137.62C368.07 137.62 405.04 174.6 405.04 220.2C405.04 227.74 405.04 288.06 405.04 295.6C405.05 341.21 368.07 378.18 322.46 378.18C321.48 378.18 318.03 378.18 317.54 378.18Z" id="ah9JxKkB"></path><path d="M319.82 137.62L319.82 378.18C321.41 378.18 322.29 378.18 322.46 378.18C368.07 378.18 405.04 341.21 405.04 295.6C405.04 288.06 405.04 227.74 405.04 220.2C405.05 174.59 368.07 137.62 322.46 137.62C322.11 137.62 321.23 137.62 319.82 137.62Z" id="a1YaTohyCG"></path><path d="M322.68 127.31C322.14 127.31 317.86 127.31 317.32 127.31C267.81 127.31 227.34 167.46 227.34 216.97C227.34 217.44 227.34 219.75 227.34 223.91L227.34 343.18L240.83 343.18C240.83 287.29 240.83 256.23 240.83 250.02C240.83 250.02 240.82 250.02 240.82 250.02C280.76 245.97 320.04 238.13 354.46 220.92C366.85 235.15 381.15 247.85 396.95 258.15C396.95 263.82 396.95 292.17 396.95 343.18L412.34 343.18L412.34 239.85C412.34 226.12 412.34 218.5 412.34 216.97C412.34 197.82 406.31 180.09 396.09 165.53C379.87 142.43 353.05 127.31 322.68 127.31Z" id="d1EwAkKeWw"></path><path d="M322.68 127.31C322.49 127.31 321.54 127.31 319.83 127.31C319.83 191.81 319.83 227.64 319.83 234.81C331.78 231.02 343.38 226.46 354.46 220.92C366.85 235.14 381.16 247.85 396.95 258.15C396.95 263.82 396.95 292.16 396.95 343.18L412.34 343.18L412.34 239.84C412.34 226.12 412.34 218.5 412.34 216.97C412.34 197.82 406.31 180.09 396.09 165.53C379.87 142.43 353.05 127.31 322.68 127.31Z" id="a7foKMZok"></path><path d="M279.9 291.22C275.2 291.22 271.39 295.02 271.39 299.72C271.39 304.42 275.2 308.23 279.9 308.23C284.59 308.23 288.4 304.42 288.4 299.72C288.4 295.02 284.59 291.22 279.9 291.22Z" id="i68wW3QkmG"></path><path d="M360.1 291.22C355.41 291.22 351.6 295.02 351.6 299.72C351.6 304.42 355.41 308.23 360.1 308.23C364.8 308.23 368.61 304.42 368.61 299.72C368.61 295.02 364.8 291.22 360.1 291.22Z" id="b3ITYspuLZ"></path><path d="M300.7 339.91C300.7 338.11 302.16 336.64 303.96 336.64C305.77 336.64 307.23 338.11 307.23 339.91C307.23 346.95 312.96 352.68 320 352.68C327.04 352.68 332.77 346.95 332.77 339.91C332.77 338.1 334.23 336.64 336.03 336.64C337.84 336.64 339.3 338.1 339.3 339.91C339.3 350.55 330.64 359.21 320 359.21C309.36 359.21 300.7 350.55 300.7 339.91Z" id="eF8QlIgWZ"></path><path d="M332.77 339.91C332.77 346.95 327.04 352.68 320 352.68C319.96 352.68 319.92 352.67 319.88 352.67C319.88 353.33 319.88 358.56 319.88 359.21C319.92 359.21 319.96 359.22 320 359.22C330.64 359.22 339.3 350.56 339.3 339.91C339.3 338.1 337.84 336.64 336.04 336.64C334.23 336.64 332.77 338.1 332.77 339.91Z" id="ahJtN3jC"></path><path d="M366.33 385.42C366.33 411.01 345.59 466.89 320 466.89C294.41 466.89 273.67 411 273.67 385.42C270.76 385.42 247.45 385.42 244.54 385.42C209.45 385.42 181.01 413.86 181.01 448.95C181.01 464.88 181.01 592.38 181.01 608.31C223.05 628.62 270.19 640 320 640C367.86 640 413.25 629.48 454.01 610.64C455.68 609.75 457.34 608.87 458.99 607.95C458.99 592.05 458.99 464.85 458.99 448.95C458.99 413.86 430.55 385.42 395.46 385.42C389.63 385.42 369.24 385.42 366.33 385.42Z" id="a1C8ozmCec"></path><path d="M458.99 448.95C458.99 413.86 430.55 385.42 395.46 385.42C392.55 385.42 369.24 385.42 366.33 385.42C366.33 411.01 345.59 466.89 320 466.89C319.94 466.89 319.89 466.88 319.83 466.88C319.83 484.19 319.83 622.69 319.83 640C319.88 640 319.94 640 320 640C369.81 640 416.96 628.62 458.99 608.31C458.99 576.44 458.99 464.88 458.99 448.95Z" id="aK6E0ZEgz"></path></defs><g><g><g><use xlink:href="#b5W1XpAbV" opacity="1" fill="#75ffe0" fill-opacity="1"></use><g><use xlink:href="#b5W1XpAbV" opacity="1" fill-opacity="0" stroke="#000000" stroke-width="1" stroke-opacity="0"></use></g></g><g><use xlink:href="#d13P1WAZXh" opacity="1" fill="#935635" fill-opacity="1"></use><g><use xlink:href="#d13P1WAZXh" opacity="1" fill-opacity="0" stroke="#000000" stroke-width="1" stroke-opacity="0"></use></g></g><g><use xlink:href="#a1LkxJl3Uc" opacity="1" fill="#804000" fill-opacity="1"></use><g><use xlink:href="#a1LkxJl3Uc" opacity="1" fill-opacity="0" stroke="#000000" stroke-width="1" stroke-opacity="0"></use></g></g><g><use xlink:href="#bmzPCUeOL" opacity="1" fill="#fed8b2" fill-opacity="1"></use><g><use xlink:href="#bmzPCUeOL" opacity="1" fill-opacity="0" stroke="#000000" stroke-width="1" stroke-opacity="0"></use></g></g><g><use xlink:href="#b1U5ocFo1m" opacity="1" fill="#eabe96" fill-opacity="1"></use><g><use xlink:href="#b1U5ocFo1m" opacity="1" fill-opacity="0" stroke="#000000" stroke-width="1" stroke-opacity="0"></use></g></g><g><use xlink:href="#a4xc7WJ0DI" opacity="1" fill="#fed8b2" fill-opacity="1"></use><g><use xlink:href="#a4xc7WJ0DI" opacity="1" fill-opacity="0" stroke="#000000" stroke-width="1" stroke-opacity="0"></use></g></g><g><use xlink:href="#aCq3SJqer" opacity="1" fill="#eabe96" fill-opacity="1"></use><g><use xlink:href="#aCq3SJqer" opacity="1" fill-opacity="0" stroke="#000000" stroke-width="1" stroke-opacity="0"></use></g></g><g><use xlink:href="#ah9JxKkB" opacity="1" fill="#f4e3c3" fill-opacity="1"></use><g><use xlink:href="#ah9JxKkB" opacity="1" fill-opacity="0" stroke="#000000" stroke-width="1" stroke-opacity="0"></use></g></g><g><use xlink:href="#a1YaTohyCG" opacity="1" fill="#fed8b2" fill-opacity="1"></use><g><use xlink:href="#a1YaTohyCG" opacity="1" fill-opacity="0" stroke="#000000" stroke-width="1" stroke-opacity="0"></use></g></g><g><use xlink:href="#d1EwAkKeWw" opacity="1" fill="#b97850" fill-opacity="1"></use><g><use xlink:href="#d1EwAkKeWw" opacity="1" fill-opacity="0" stroke="#000000" stroke-width="1" stroke-opacity="0"></use></g></g><g><use xlink:href="#a7foKMZok" opacity="1" fill="#935635" fill-opacity="1"></use><g><use xlink:href="#a7foKMZok" opacity="1" fill-opacity="0" stroke="#000000" stroke-width="1" stroke-opacity="0"></use></g></g><g><use xlink:href="#i68wW3QkmG" opacity="1" fill="#59595b" fill-opacity="1"></use><g><use xlink:href="#i68wW3QkmG" opacity="1" fill-opacity="0" stroke="#000000" stroke-width="1" stroke-opacity="0"></use></g></g><g><use xlink:href="#b3ITYspuLZ" opacity="1" fill="#272525" fill-opacity="1"></use><g><use xlink:href="#b3ITYspuLZ" opacity="1" fill-opacity="0" stroke="#000000" stroke-width="1" stroke-opacity="0"></use></g></g><g><use xlink:href="#eF8QlIgWZ" opacity="1" fill="#fd8469" fill-opacity="1"></use><g><use xlink:href="#eF8QlIgWZ" opacity="1" fill-opacity="0" stroke="#000000" stroke-width="1" stroke-opacity="0"></use></g></g><g><use xlink:href="#ahJtN3jC" opacity="1" fill="#fc6f58" fill-opacity="1"></use><g><use xlink:href="#ahJtN3jC" opacity="1" fill-opacity="0" stroke="#000000" stroke-width="1" stroke-opacity="0"></use></g></g><g><use xlink:href="#a1C8ozmCec" opacity="1" fill="#ff6472" fill-opacity="1"></use><g><use xlink:href="#a1C8ozmCec" opacity="1" fill-opacity="0" stroke="#000000" stroke-width="1" stroke-opacity="0"></use></g></g><g><use xlink:href="#aK6E0ZEgz" opacity="1" fill="#c75163" fill-opacity="1"></use><g><use xlink:href="#aK6E0ZEgz" opacity="1" fill-opacity="0" stroke="#000000" stroke-width="1" stroke-opacity="0"></use></g></g></g></g></svg>