<?xml version="1.0" encoding="iso-8859-1"?>
<!-- Generator: Adobe Illustrator 19.0.0, SVG Export Plug-In . SVG Version: 6.00 Build 0)  -->
<svg version="1.1" id="Layer_1" xmlns="http://www.w3.org/2000/svg" xmlns:xlink="http://www.w3.org/1999/xlink" x="0px" y="0px"
	 viewBox="0 0 512 512" style="enable-background:new 0 0 512 512;" xml:space="preserve">
<circle style="fill:#FC6F58;" cx="256" cy="256" r="256"/>
<path style="fill:#F1543F;" d="M499.228,336.02l-173.97-173.97l-38.674,291.495l46.601,46.601
	C411.539,475.398,473.593,413.977,499.228,336.02z"/>
<path style="fill:#324A5E;" d="M258.586,132.741h-5.172c-49.985,0-90.505,40.52-90.505,90.505v271.293
	C191.762,505.808,223.156,512,256,512s64.238-6.192,93.091-17.461V223.246C349.091,173.261,308.57,132.741,258.586,132.741z"/>
<path style="fill:#2B3B4E;" d="M258.586,132.741h-3.16v379.252c0.191,0,0.383,0.007,0.574,0.007
	c32.844,0,64.238-6.192,93.091-17.461V223.246C349.091,173.261,308.57,132.741,258.586,132.741z"/>
<path style="fill:#FED8B2;" d="M275.525,315.097v-21.652h-39.048v21.652c0,1.727-1.402,3.129-3.129,3.129h-26.91v74.719h99.125
	v-74.719h-26.91C276.925,318.226,275.525,316.825,275.525,315.097z"/>
<path style="fill:#FCCDA2;" d="M305.562,318.226h-26.908c-1.727,0-3.129-1.402-3.129-3.129v-21.652h-20.099v99.5h50.136V318.226z"/>
<circle style="fill:#FED8B2;" cx="191.095" cy="248.087" r="15.601"/>
<circle style="fill:#EABE96;" cx="317.578" cy="248.087" r="15.601"/>
<path style="fill:#F4E3C3;" d="M256.095,313.063h-3.517c-32.527,0-58.894-26.367-58.894-58.894v-26.614
	c0-32.527,26.369-58.894,58.896-58.894h3.517c32.527,0,58.894,26.367,58.894,58.894v26.614
	C314.989,286.696,288.621,313.063,256.095,313.063z"/>
<path style="fill:#FED8B2;" d="M256.095,168.662h-0.669v144.403h0.669c32.527,0,58.894-26.367,58.894-58.896v-26.614
	C314.99,195.029,288.621,168.662,256.095,168.662z"/>
<circle style="fill:#59595B;" cx="228.021" cy="254.276" r="5.58"/>
<circle style="fill:#272525;" cx="280.652" cy="254.276" r="5.58"/>
<circle style="fill:#84DBFF;" cx="256" cy="284.444" r="21.549"/>
<g>
	<path style="fill:#31BAFD;" d="M256,262.896c-0.193,0-0.381,0.024-0.574,0.029v43.039c0.193,0.005,0.381,0.029,0.574,0.029
		c11.902,0,21.549-9.647,21.549-21.549S267.902,262.896,256,262.896z"/>
	<path style="fill:#31BAFD;" d="M256,315.475c-9.03,0-16.377-7.347-16.377-16.377c0-9.03,7.347-16.377,16.377-16.377
		c9.03,0,16.377,7.347,16.377,16.377C272.377,308.127,265.03,315.475,256,315.475z M256,287.892
		c-6.178,0-11.205,5.027-11.205,11.205c0,6.178,5.027,11.205,11.205,11.205c6.178,0,11.205-5.027,11.205-11.205
		C267.205,292.919,262.178,287.892,256,287.892z"/>
</g>
<path style="fill:#2B9ED8;" d="M256,282.721c-0.193,0-0.383,0.022-0.574,0.029v5.172c0.191-0.01,0.381-0.029,0.574-0.029
	c6.178,0,11.205,5.027,11.205,11.205c0,6.178-5.027,11.205-11.205,11.205c-0.193,0-0.383-0.019-0.574-0.029v5.172
	c0.191,0.007,0.381,0.029,0.574,0.029c9.03,0,16.377-7.347,16.377-16.377C272.377,290.068,265.03,282.721,256,282.721z"/>
<path style="fill:#E6F3FF;" d="M162.909,494.539C191.762,505.808,223.156,512,256,512s64.238-6.192,93.091-17.461V294.078
	l-186.182,64.479V494.539z"/>
<path style="fill:#CFDBE6;" d="M255.426,326.516v185.477c0.191,0,0.383,0.007,0.574,0.007c32.844,0,64.238-6.192,93.091-17.461
	V294.078L255.426,326.516z"/>
<polygon style="fill:#B5F1F4;" points="162.909,358.557 246.506,329.606 162.909,288.606 "/>
<g>
</g>
<g>
</g>
<g>
</g>
<g>
</g>
<g>
</g>
<g>
</g>
<g>
</g>
<g>
</g>
<g>
</g>
<g>
</g>
<g>
</g>
<g>
</g>
<g>
</g>
<g>
</g>
<g>
</g>
</svg>
